<svg width="16" height="16" viewBox="0 0 16 16" fill="none" xmlns="http://www.w3.org/2000/svg">
<path d="M9.175 7.99997L15.25 1.92497C15.3865 1.76556 15.4579 1.56049 15.4498 1.35076C15.4417 1.14103 15.3547 0.942083 15.2063 0.793671C15.0579 0.645259 14.8589 0.558315 14.6492 0.550214C14.4395 0.542113 14.2344 0.613452 14.075 0.749974L8 6.82497L1.925 0.74164C1.76558 0.605118 1.56052 0.53378 1.35079 0.541881C1.14106 0.549982 0.942108 0.636925 0.793696 0.785338C0.645284 0.93375 0.55834 1.1327 0.550239 1.34243C0.542138 1.55216 0.613477 1.75722 0.749999 1.91664L6.825 7.99997L0.741665 14.075C0.65443 14.1497 0.58358 14.2416 0.533561 14.345C0.483541 14.4484 0.455432 14.561 0.450999 14.6758C0.446566 14.7905 0.465905 14.905 0.5078 15.0119C0.549696 15.1188 0.613244 15.216 0.694457 15.2972C0.775669 15.3784 0.872792 15.4419 0.979729 15.4838C1.08667 15.5257 1.20111 15.5451 1.31588 15.5406C1.43064 15.5362 1.54325 15.5081 1.64664 15.4581C1.75003 15.4081 1.84196 15.3372 1.91666 15.25L8 9.17497L14.075 15.25C14.2344 15.3865 14.4395 15.4578 14.6492 15.4497C14.8589 15.4416 15.0579 15.3547 15.2063 15.2063C15.3547 15.0579 15.4417 14.8589 15.4498 14.6492C15.4579 14.4395 15.3865 14.2344 15.25 14.075L9.175 7.99997Z" fill="white" fill-opacity="0.7"/>
</svg>
